<svg xmlns="http://www.w3.org/2000/svg" viewBox="0 0 495 200" width="495" height="200" role="img" aria-label="Daily contribution activity for iamkaifpathaan">
<defs>
  <linearGradient id="areaFill-light" x1="0" y1="0" x2="0" y2="1">
    <stop offset="0%" stop-color="#22D3EE" stop-opacity=".35"/>
    <stop offset="100%" stop-color="#A855F7" stop-opacity="0"/>
  </linearGradient>
</defs>
<style>
.row-fade { animation: fadeIn .6s ease-out forwards; }
@keyframes fadeIn { from { opacity: 0; transform: translateY(4px); } to { opacity: 1; transform: translateY(0); } }
</style>

<rect width="495" height="200" rx="18" fill="#F8FAFC"/>
<rect x="1" y="1" width="493" height="198" rx="17" fill="#FFFFFF" fill-opacity="1"/>
<rect x="1.5" y="1.5" width="492" height="197" rx="16.5" fill="none" stroke="#0F172A" stroke-opacity="0.08"/>
<g fill="#7C3AED" fill-opacity=".28">
  <rect x="461" y="16" width="5" height="5" rx="1"/>
  <rect x="473" y="16" width="5" height="5" rx="1"/>
</g>
<rect x="24" y="14" width="5" height="5" rx="1" fill="#22D3EE"/>
<text x="36" y="23" font-family="Consolas,'Fira Code',monospace" font-size="13" font-weight="700" fill="#0F172A">activity.sh --graph</text>
<rect x="24" y="34" width="447" height="1" fill="#0F172A" fill-opacity="0.08"/>
<g opacity="0" class="row-fade" style="animation-delay:0.05s">

<line x1="44" y1="166.0" x2="471" y2="166.0" stroke="#E2E8F0" stroke-width="1" stroke-dasharray="1,4"/>
<text x="36" y="169.0" text-anchor="end" font-family="Consolas,'Fira Code',monospace" font-size="9" fill="#475569">0</text>
<line x1="44" y1="111.0" x2="471" y2="111.0" stroke="#E2E8F0" stroke-width="1" stroke-dasharray="1,4"/>
<text x="36" y="114.0" text-anchor="end" font-family="Consolas,'Fira Code',monospace" font-size="9" fill="#475569">20</text>
<line x1="44" y1="56.0" x2="471" y2="56.0" stroke="#E2E8F0" stroke-width="1" stroke-dasharray="1,4"/>
<text x="36" y="59.0" text-anchor="end" font-family="Consolas,'Fira Code',monospace" font-size="9" fill="#475569">40</text>
<path d="M44.0,166.0 L49.1,160.5 L54.3,138.5 L59.4,144.0 L64.6,166.0 L69.7,166.0 L74.9,166.0 L80.0,166.0 L85.2,166.0 L90.3,166.0 L95.4,166.0 L100.6,166.0 L105.7,166.0 L110.9,166.0 L116.0,166.0 L121.2,166.0 L126.3,166.0 L131.5,166.0 L136.6,166.0 L141.7,166.0 L146.9,166.0 L152.0,166.0 L157.2,166.0 L162.3,166.0 L167.5,166.0 L172.6,166.0 L177.8,166.0 L182.9,166.0 L188.0,166.0 L193.2,166.0 L198.3,166.0 L203.5,166.0 L208.6,166.0 L213.8,166.0 L218.9,166.0 L224.1,166.0 L229.2,163.3 L234.3,152.3 L239.5,166.0 L244.6,166.0 L249.8,166.0 L254.9,166.0 L260.1,166.0 L265.2,166.0 L270.4,166.0 L275.5,166.0 L280.7,166.0 L285.8,166.0 L290.9,166.0 L296.1,166.0 L301.2,166.0 L306.4,166.0 L311.5,166.0 L316.7,166.0 L321.8,166.0 L327.0,152.3 L332.1,149.5 L337.2,166.0 L342.4,166.0 L347.5,166.0 L352.7,166.0 L357.8,166.0 L363.0,166.0 L368.1,138.5 L373.3,56.0 L378.4,130.3 L383.5,146.8 L388.7,141.3 L393.8,141.3 L399.0,141.3 L404.1,141.3 L409.3,141.3 L414.4,135.8 L419.6,122.0 L424.7,141.3 L429.8,141.3 L435.0,138.5 L440.1,146.8 L445.3,141.3 L450.4,141.3 L455.6,141.3 L460.7,141.3 L465.9,141.3 L471.0,146.8 L471.0,166 L44.0,166 Z" fill="url(#areaFill-light)" stroke="none"/>
<path d="M44.0,166.0 L49.1,160.5 L54.3,138.5 L59.4,144.0 L64.6,166.0 L69.7,166.0 L74.9,166.0 L80.0,166.0 L85.2,166.0 L90.3,166.0 L95.4,166.0 L100.6,166.0 L105.7,166.0 L110.9,166.0 L116.0,166.0 L121.2,166.0 L126.3,166.0 L131.5,166.0 L136.6,166.0 L141.7,166.0 L146.9,166.0 L152.0,166.0 L157.2,166.0 L162.3,166.0 L167.5,166.0 L172.6,166.0 L177.8,166.0 L182.9,166.0 L188.0,166.0 L193.2,166.0 L198.3,166.0 L203.5,166.0 L208.6,166.0 L213.8,166.0 L218.9,166.0 L224.1,166.0 L229.2,163.3 L234.3,152.3 L239.5,166.0 L244.6,166.0 L249.8,166.0 L254.9,166.0 L260.1,166.0 L265.2,166.0 L270.4,166.0 L275.5,166.0 L280.7,166.0 L285.8,166.0 L290.9,166.0 L296.1,166.0 L301.2,166.0 L306.4,166.0 L311.5,166.0 L316.7,166.0 L321.8,166.0 L327.0,152.3 L332.1,149.5 L337.2,166.0 L342.4,166.0 L347.5,166.0 L352.7,166.0 L357.8,166.0 L363.0,166.0 L368.1,138.5 L373.3,56.0 L378.4,130.3 L383.5,146.8 L388.7,141.3 L393.8,141.3 L399.0,141.3 L404.1,141.3 L409.3,141.3 L414.4,135.8 L419.6,122.0 L424.7,141.3 L429.8,141.3 L435.0,138.5 L440.1,146.8 L445.3,141.3 L450.4,141.3 L455.6,141.3 L460.7,141.3 L465.9,141.3 L471.0,146.8" fill="none" stroke="#22D3EE" stroke-width="2" stroke-linejoin="round" stroke-linecap="round"/>
<text x="44" y="184" font-family="Consolas,'Fira Code',monospace" font-size="10" fill="#475569">Jun 1 – Aug 23</text>
</g>
<text x="479" y="190" text-anchor="end" font-family="Consolas,'Fira Code',monospace" font-size="9" fill="#475569" fill-opacity=".55">updated 2026-08-23 18:13 UTC</text>
</svg>